# xmcd
#
# Track frame offsets:
#	150
#	14993
#	32497
#	43726
#	62080
#	78659
#	89869
#	111896
#	122621
#	137185
#
# Disc length: 2004 seconds
#
# Revision: 1
# Processed by: cddbd v1.5.1PL0 Copyright (c) Steve Scherf et al.
# Submitted via: audiograbber 1.83.01
#
DISCID=9107d20a
DTITLE=Morgan Frazier - Big Enough
DYEAR=1900
DGENRE=Country
TTITLE0=Yodelin' Blues
TTITLE1=Blue Bayou
TTITLE2=Big Enough
TTITLE3=Open Heaven's Door
TTITLE4=Can You See
TTITLE5=If I Had a Dollar
TTITLE6=Ode to Billy Joe
TTITLE7=Livin' on Dreams
TTITLE8=Don't Stand in My Way
TTITLE9=What's in a Cowboy
EXTD=
EXTT0=
EXTT1=
EXTT2=
EXTT3=
EXTT4=
EXTT5=
EXTT6=
EXTT7=
EXTT8=
EXTT9=
PLAYORDER=
